<svg width="483" height="168" viewBox="0 0 483 168" fill="none" xmlns="http://www.w3.org/2000/svg">
<g clip-path="url(#clip0_232:232)">
<path d="M58.2 0.66001C47.3501 -0.451883 36.4221 1.82217 26.9165 7.16991C17.4109 12.5177 9.79378 20.6768 5.11113 30.5271C0.428476 40.3774 -1.09011 51.4357 0.763907 62.1836C2.61792 72.9316 7.75361 82.842 15.4658 90.5542C23.178 98.2664 33.0884 103.402 43.8363 105.256C54.5843 107.11 65.6426 105.591 75.4929 100.909C85.3431 96.2262 93.5023 88.6091 98.8501 79.1035C104.198 69.5978 106.472 58.6698 105.36 47.82C104.12 35.7354 98.7525 24.4475 90.1625 15.8575C81.5725 7.26749 70.2846 1.90032 58.2 0.66001V0.66001ZM56.49 81.14C50.6523 81.9087 44.7204 80.8295 39.5276 78.0539C34.3347 75.2784 30.1417 70.946 27.5374 65.6651C24.9331 60.3843 24.0484 54.4204 25.0075 48.6109C25.9666 42.8015 28.7214 37.4384 32.8849 33.2749C37.0484 29.1114 42.4114 26.3566 48.2209 25.3975C54.0303 24.4384 59.9943 25.3231 65.2751 27.9274C70.5559 30.5317 74.8884 34.7248 77.6639 39.9176C80.4394 45.1105 81.5186 51.0423 80.75 56.88C79.9369 63.0288 77.1194 68.7381 72.7337 73.1238C68.348 77.5095 62.6388 80.327 56.49 81.14" fill="#005BFF"/>
<path d="M133.7 2.75003C131.866 2.7512 130.055 3.16139 128.399 3.95075C126.743 4.7401 125.284 5.88876 124.127 7.31313C122.971 8.73749 122.147 10.4017 121.715 12.1847C121.283 13.9676 121.254 15.8245 121.63 17.62C122.8 23.43 128.24 27.4 134.16 27.4H168.56L115 98C114.607 98.5235 114.367 99.1461 114.308 99.798C114.248 100.45 114.371 101.106 114.662 101.692C114.954 102.278 115.403 102.772 115.959 103.118C116.515 103.463 117.156 103.648 117.81 103.65H201.81C207.73 103.65 213.18 99.65 214.34 93.87C214.719 92.0743 214.691 90.2168 214.26 88.433C213.829 86.6493 213.005 84.9842 211.848 83.5594C210.692 82.1346 209.232 80.9859 207.575 80.1971C205.918 79.4083 204.106 78.9994 202.27 79H160.36L213.84 8.45003C214.242 7.9227 214.488 7.29355 214.55 6.63379C214.612 5.97403 214.489 5.31 214.193 4.71685C213.898 4.1237 213.442 3.62512 212.878 3.27752C212.313 2.92993 211.663 2.74721 211 2.75003H133.7Z" fill="#005BFF"/>
<path d="M466.21 3.99999C463.436 4.65735 460.969 6.24134 459.216 8.49037C457.463 10.7394 456.53 13.519 456.57 16.37V57.37L389.88 4.52999C389.358 4.11465 388.73 3.85485 388.067 3.78037C387.404 3.70589 386.733 3.81975 386.132 4.1089C385.531 4.39805 385.023 4.85078 384.667 5.41518C384.312 5.97958 384.122 6.63282 384.12 7.29999V92C384.079 94.8528 385.013 97.6344 386.768 99.8839C388.523 102.134 390.993 103.716 393.77 104.37C395.569 104.767 397.434 104.756 399.229 104.339C401.023 103.921 402.701 103.107 404.139 101.956C405.578 100.805 406.74 99.3469 407.542 97.6881C408.343 96.0293 408.763 94.2122 408.77 92.37V51L475.46 103.91C475.982 104.327 476.611 104.588 477.275 104.662C477.939 104.737 478.61 104.622 479.211 104.332C479.813 104.041 480.32 103.586 480.673 103.019C481.027 102.453 481.213 101.798 481.21 101.13V16.13C481.205 14.2872 480.786 12.4691 479.986 10.8093C479.185 9.14962 478.022 7.6905 476.583 6.5393C475.144 5.38811 473.465 4.5741 471.67 4.15716C469.875 3.74021 468.01 3.73093 466.21 4.12999" fill="#005BFF"/>
<path d="M310.739 116.39H297.249C296.474 116.391 295.708 116.559 295.004 116.884C294.3 117.208 293.674 117.681 293.169 118.27L279.659 134.74L279.209 118.58C279.105 117.974 278.796 117.422 278.333 117.016C277.871 116.61 277.284 116.375 276.669 116.35C261.378 115.865 246.893 109.378 236.35 98.2923C225.807 87.2069 220.053 72.4153 220.334 57.1192C220.615 41.823 226.909 27.253 237.853 16.5629C248.797 5.87268 263.511 -0.0775841 278.809 1.71873e-05H310.739C326.042 0.200612 340.649 6.42014 351.399 17.312C362.149 28.2039 368.177 42.8916 368.177 58.195C368.177 73.4985 362.149 88.1862 351.399 99.078C340.649 109.97 326.042 116.189 310.739 116.39" fill="#F81155"/>
<path d="M264.089 31.39C265.089 36.78 262.719 41.84 256.959 48.16L247.479 58.93L263.769 55.93L263.609 64.73L232.699 70.17L232.819 62.3L248.209 44.92C253.029 39.55 254.499 37.14 254.049 34.6C253.599 32.06 251.719 31.02 248.539 31.6C244.929 32.23 242.909 34.6 242.889 38.15L233.179 39.87C232.539 30.68 238.059 24.08 247.959 22.34C256.839 20.77 262.809 24.17 264.089 31.41" fill="white"/>
<path d="M297.389 42.73L301.769 41.95L301.649 50.55L297.209 51.33L297.089 58.82L288.449 60.34L288.569 52.86L267.059 56.65L267.159 49.1L288.329 16.18L297.849 14.51L297.389 42.73ZM288.759 44.25L289.059 28.16L288.809 28.21L277.269 46.27L288.759 44.25Z" fill="white"/>
<path d="M283.82 101.3L326.34 17.62L332.48 20.48L289.97 104.16L283.82 101.3Z" fill="white"/>
<path d="M355.389 54.93L337.439 95.42L325.569 97.52L344.059 57.34L324.689 60.76L324.839 50.99L355.539 45.57L355.389 54.93Z" fill="white"/>
</g>
<path d="M20.6164 124.39C24.3189 124.39 27.1107 125.256 28.9918 126.987C30.8729 128.719 31.8135 130.974 31.8135 133.75C31.8135 137.035 30.6191 139.737 28.2304 141.857C25.8716 143.947 22.4378 144.992 17.9291 144.992H13.7638L11.6588 155.741H4.71661L10.8078 124.39H20.6164ZM18.6457 138.722C20.3776 138.722 21.7511 138.334 22.7663 137.557C23.8113 136.781 24.3339 135.676 24.3339 134.243C24.3339 131.884 22.7961 130.705 19.7207 130.705H16.5407L14.9731 138.722H18.6457ZM54.469 155.741L53.4836 149.381H41.3908L37.9421 155.741H29.8355L48.2882 124.39H55.6335L61.9038 155.741H54.469ZM44.6156 143.425H52.5431L50.7516 132.048L44.6156 143.425ZM95.362 130.884H81.1642L80.2684 135.542H84.8816C86.3148 135.542 87.6137 135.691 88.7782 135.99C89.9426 136.288 91.0176 136.781 92.0029 137.468C93.0181 138.125 93.8094 139.065 94.3767 140.289C94.944 141.514 95.2277 142.977 95.2277 144.679C95.2277 148.262 94.0333 151.009 91.6446 152.92C89.2858 154.801 86.1804 155.741 82.3287 155.741H69.3849L75.4761 124.39H96.6161L95.362 130.884ZM83.5827 141.812H79.0143L77.5363 149.471H82.1495C83.8515 149.471 85.225 149.098 86.27 148.351C87.3151 147.605 87.8376 146.545 87.8376 145.171C87.8376 142.932 86.4193 141.812 83.5827 141.812ZM117.927 156.413C113.269 156.413 109.507 155.07 106.641 152.382C103.774 149.665 102.341 146.052 102.341 141.544C102.341 136.527 104.043 132.302 107.447 128.868C110.851 125.435 115.21 123.718 120.525 123.718C125.183 123.718 128.93 125.076 131.767 127.794C134.633 130.481 136.066 134.079 136.066 138.588C136.066 143.604 134.365 147.829 130.961 151.263C127.587 154.696 123.242 156.413 117.927 156.413ZM118.33 149.471C121.585 149.471 124.123 148.411 125.944 146.291C127.796 144.171 128.721 141.678 128.721 138.811C128.721 136.184 127.915 134.168 126.303 132.765C124.72 131.362 122.66 130.66 120.122 130.66C116.867 130.66 114.314 131.72 112.463 133.84C110.612 135.96 109.686 138.453 109.686 141.32C109.686 143.947 110.492 145.963 112.105 147.366C113.717 148.769 115.792 149.471 118.33 149.471ZM166.441 124.39L165.187 130.929H156.901L152.109 155.741H145.167L149.959 130.929H141.718L142.972 124.39H166.441ZM186.036 155.741L185.051 149.381H172.958L169.509 155.741H161.403L179.855 124.39H187.201L193.471 155.741H186.036ZM176.183 143.425H184.11L182.319 132.048L176.183 143.425ZM225.182 130.884H212.776L211.791 135.811H222.988L221.779 142.126H210.537L209.148 149.247H221.823L220.569 155.741H200.952L207.043 124.39H226.436L225.182 130.884ZM227.121 155.741L241.139 124.39H246.379L249.873 140.513H249.963L259.682 124.39H264.967L266.937 155.741H260.085L259.279 137.647H259.189L250.679 151.263H245.842L242.572 137.647H242.483L234.735 155.741H227.121ZM312.2 139.215C315.604 139.901 317.306 142.171 317.306 146.022C317.306 149.307 316.112 151.755 313.723 153.368C311.334 154.95 308.334 155.741 304.721 155.741H291.284L297.375 124.39H310.274C312.842 124.39 314.888 125.017 316.41 126.271C317.933 127.495 318.695 129.227 318.695 131.466C318.695 135.348 316.53 137.901 312.2 139.125V139.215ZM307.184 136.841C308.349 136.841 309.319 136.542 310.095 135.945C310.901 135.348 311.305 134.571 311.305 133.616C311.305 132.69 311.006 131.974 310.409 131.466C309.812 130.959 308.991 130.705 307.945 130.705H303.108L301.899 136.841H307.184ZM304.945 149.426C306.527 149.426 307.781 149.113 308.707 148.486C309.662 147.859 310.14 146.978 310.14 145.843C310.14 143.693 308.707 142.618 305.84 142.618H300.779L299.436 149.426H304.945ZM341.056 156.413C336.368 156.413 332.576 155.01 329.679 152.203C326.813 149.396 325.38 145.709 325.38 141.14C325.38 136.035 327.111 131.854 330.575 128.6C334.039 125.345 338.532 123.718 344.056 123.718C348.684 123.718 352.656 124.823 355.97 127.032L351.76 133.168C349.431 131.556 346.833 130.75 343.967 130.75C340.652 130.75 337.995 131.705 335.994 133.616C333.994 135.497 332.994 137.96 332.994 141.006C332.994 143.544 333.755 145.589 335.278 147.142C336.801 148.695 338.801 149.471 341.279 149.471C343.698 149.471 346.326 148.725 349.162 147.232L352.073 153.368C348.52 155.398 344.848 156.413 341.056 156.413ZM384.251 130.884H371.844L370.859 135.811H382.056L380.847 142.126H369.605L368.216 149.247H380.891L379.637 155.741H360.02L366.111 124.39H385.505L384.251 130.884ZM414.137 124.39L412.883 130.929H400.7L395.863 155.741H388.921L395.012 124.39H414.137ZM445.101 124.39L440.13 149.919H443.892L441.563 162.012H435.069L436.144 156.413H417.781L416.706 162.012H410.211L412.54 149.919H415.72C417.99 147.052 419.557 143.395 420.423 138.946L423.289 124.39H445.101ZM427.5 138.991C426.604 143.529 425.186 147.172 423.245 149.919H433.188L436.905 130.884H428.978L427.5 138.991ZM472.866 155.741L471.881 149.381H459.788L456.339 155.741H448.233L466.685 124.39H474.031L480.301 155.741H472.866ZM463.013 143.425H470.94L469.149 132.048L463.013 143.425Z" fill="#005BFF"/>
<defs>
<clipPath id="clip0_232:232">
<rect width="481.21" height="134.74" fill="white"/>
</clipPath>
</defs>
</svg>
